# xmcd
#
# Track frame offsets:
#	180
#	29789
#	60835
#	74798
#	117224
#	152598
#	179667
#	202892
#	223872
#	243358
#
# Disc length: 3571
#
# Revision: 1
# Processed by: cddbd v1.5.1PL0 Copyright (c) Steve Scherf et al.
# Submitted via: CDex 1.50
# Normalized: r0:DSETVAR1,TDELIM( - )
#
DISCID=940df10a
DTITLE=Various Artist - Introducing - Jazz Colours
DYEAR=1900
DGENRE=Jazz
TTITLE0=Sidney Bechet - Honeysuckle Rose
TTITLE1=Don Byas - All the things you are
TTITLE2=Ben Webster - Set call (the theme)
TTITLE3=Johnny Griffin - Hush-a-bye
TTITLE4=Dollar Brand - The dream
TTITLE5=Buddy Tate - Pamela
TTITLE6=Stephane Grapelli - How high the moon
TTITLE7=Ruby Braff - The sheik of Araby
TTITLE8=Rod Mason - Blues my naughty Sweetie gives to me
TTITLE9=Chris Barber - At the Darktown Strutters Ball
EXTD=
EXTT0=
EXTT1=
EXTT2=
EXTT3=
EXTT4=
EXTT5=
EXTT6=
EXTT7=
EXTT8=
EXTT9=
PLAYORDER=
